<svg xmlns="http://www.w3.org/2000/svg" xmlns:xlink="http://www.w3.org/1999/xlink" width="500" zoomAndPan="magnify" viewBox="0 0 375 374.999991" height="500" preserveAspectRatio="xMidYMid meet" version="1.0"><defs><clipPath id="b711e4d5e4"><path d="M 208 293 L 375 293 L 375 375 L 208 375 Z M 208 293 " clip-rule="nonzero"/></clipPath><clipPath id="cc9bd90832"><path d="M 239.878906 572.617188 L 187.535156 339.164062 L 451.726562 279.929688 L 504.070312 513.382812 Z M 239.878906 572.617188 " clip-rule="nonzero"/></clipPath><clipPath id="39cb64c37d"><path d="M 239.878906 572.617188 L 187.535156 339.164062 L 451.726562 279.929688 L 504.070312 513.382812 Z M 239.878906 572.617188 " clip-rule="nonzero"/></clipPath><clipPath id="a8dd6e44f9"><path d="M 207 293 L 375 293 L 375 375 L 207 375 Z M 207 293 " clip-rule="nonzero"/></clipPath><clipPath id="1ea5092dde"><path d="M 239.878906 572.617188 L 187.535156 339.164062 L 451.726562 279.929688 L 504.070312 513.382812 Z M 239.878906 572.617188 " clip-rule="nonzero"/></clipPath><clipPath id="ced3543bdd"><path d="M 239.878906 572.617188 L 187.535156 339.164062 L 451.726562 279.929688 L 504.070312 513.382812 Z M 239.878906 572.617188 " clip-rule="nonzero"/></clipPath><clipPath id="a6f299470a"><path d="M 153.710938 294 L 196.460938 294 L 196.460938 375 L 153.710938 375 Z M 153.710938 294 " clip-rule="nonzero"/></clipPath><clipPath id="115a0575ef"><path d="M 49.730469 115.085938 L 324.742188 115.085938 L 324.742188 375 L 49.730469 375 Z M 49.730469 115.085938 " clip-rule="nonzero"/></clipPath><clipPath id="92a206a52a"><path d="M 66.980469 115.085938 L 307.492188 115.085938 C 312.066406 115.085938 316.453125 116.902344 319.6875 120.136719 C 322.921875 123.371094 324.742188 127.757812 324.742188 132.335938 L 324.742188 525.996094 C 324.742188 530.570312 322.921875 534.957031 319.6875 538.191406 C 316.453125 541.425781 312.066406 543.246094 307.492188 543.246094 L 66.980469 543.246094 C 62.40625 543.246094 58.019531 541.425781 54.78125 538.191406 C 51.546875 534.957031 49.730469 530.570312 49.730469 525.996094 L 49.730469 132.335938 C 49.730469 127.757812 51.546875 123.371094 54.78125 120.136719 C 58.019531 116.902344 62.40625 115.085938 66.980469 115.085938 " clip-rule="nonzero"/></clipPath><clipPath id="e7dee73f9a"><path d="M 52 128.089844 L 327 128.089844 L 327 308.839844 L 52 308.839844 Z M 52 128.089844 " clip-rule="nonzero"/></clipPath><clipPath id="500fe936d3"><path d="M 43 40 L 179 40 L 179 191 L 43 191 Z M 43 40 " clip-rule="nonzero"/></clipPath><clipPath id="d826a53481"><path d="M -17.921875 81.253906 L 116.9375 -0.105469 L 187.449219 116.769531 L 52.59375 198.132812 Z M -17.921875 81.253906 " clip-rule="nonzero"/></clipPath><clipPath id="bd67010a7c"><path d="M -17.921875 81.253906 L 116.9375 -0.105469 L 187.449219 116.769531 L 52.59375 198.132812 Z M -17.921875 81.253906 " clip-rule="nonzero"/></clipPath><clipPath id="93eb5721bb"><path d="M 194 40 L 330 40 L 330 190 L 194 190 Z M 194 40 " clip-rule="nonzero"/></clipPath><clipPath id="a2b4a5e98f"><path d="M 253.214844 0.925781 L 390.261719 78.539062 L 323 197.3125 L 185.949219 119.699219 Z M 253.214844 0.925781 " clip-rule="nonzero"/></clipPath><clipPath id="854dd463f6"><path d="M 253.214844 0.925781 L 390.261719 78.539062 L 323 197.3125 L 185.949219 119.699219 Z M 253.214844 0.925781 " clip-rule="nonzero"/></clipPath><clipPath id="2cb78c8757"><path d="M 57 64 L 138 64 L 138 151 L 57 151 Z M 57 64 " clip-rule="nonzero"/></clipPath><clipPath id="a09ec59a5c"><path d="M 23.625 89.378906 L 103.210938 39.824219 L 146.023438 108.582031 L 66.441406 158.136719 Z M 23.625 89.378906 " clip-rule="nonzero"/></clipPath><clipPath id="ecbe00e7c6"><path d="M 23.625 89.378906 L 103.210938 39.824219 L 146.023438 108.582031 L 66.441406 158.136719 Z M 23.625 89.378906 " clip-rule="nonzero"/></clipPath><clipPath id="16ab89cf0a"><path d="M 237 64 L 317 64 L 317 151 L 237 151 Z M 237 64 " clip-rule="nonzero"/></clipPath><clipPath id="d31d698493"><path d="M 270.789062 40.164062 L 350.757812 89.089844 L 308.488281 158.1875 L 228.515625 109.261719 Z M 270.789062 40.164062 " clip-rule="nonzero"/></clipPath><clipPath id="2b7e32d170"><path d="M 270.789062 40.164062 L 350.757812 89.089844 L 308.488281 158.1875 L 228.515625 109.261719 Z M 270.789062 40.164062 " clip-rule="nonzero"/></clipPath><clipPath id="0cca0d10a3"><path d="M 109.804688 154.164062 L 164.554688 154.164062 L 164.554688 240.414062 L 109.804688 240.414062 Z M 109.804688 154.164062 " clip-rule="nonzero"/></clipPath><clipPath id="e62043c0de"><path d="M 208.0625 154.164062 L 262.8125 154.164062 L 262.8125 240.414062 L 208.0625 240.414062 Z M 208.0625 154.164062 " clip-rule="nonzero"/></clipPath><clipPath id="545fe3479a"><path d="M 220.386719 173.421875 L 250.386719 173.421875 L 250.386719 220.671875 L 220.386719 220.671875 Z M 220.386719 173.421875 " clip-rule="nonzero"/></clipPath><clipPath id="6488dee4ee"><path d="M 123.347656 173.421875 L 153.347656 173.421875 L 153.347656 220.671875 L 123.347656 220.671875 Z M 123.347656 173.421875 " clip-rule="nonzero"/></clipPath><clipPath id="ef66def938"><path d="M 166.160156 279.742188 L 211.910156 279.742188 L 211.910156 308.992188 L 166.160156 308.992188 Z M 166.160156 279.742188 " clip-rule="nonzero"/></clipPath><clipPath id="651c7491d2"><path d="M 224.527344 238.105469 L 260.546875 238.105469 L 260.546875 256.769531 L 224.527344 256.769531 Z M 224.527344 238.105469 " clip-rule="nonzero"/></clipPath><clipPath id="89dc88c5f8"><path d="M 224.636719 253.929688 C 242.339844 241.597656 255.265625 238.21875 258.449219 239.011719 C 259.441406 239.210938 260.238281 240.007812 260.238281 240.605469 C 260.238281 241.199219 259.246094 242.792969 258.648438 242.792969 C 258.050781 242.792969 256.460938 240.40625 256.660156 240.007812 C 256.859375 239.609375 260.039062 239.808594 260.238281 240.40625 C 260.4375 240.800781 259.839844 241.996094 258.847656 242.792969 C 255.863281 244.980469 241.941406 245.773438 236.171875 248.757812 C 231.996094 250.945312 228.214844 256.714844 226.425781 256.515625 C 225.433594 256.316406 224.636719 253.929688 224.636719 253.929688 " clip-rule="nonzero"/></clipPath><clipPath id="fdc180eef9"><path d="M 226.070312 253.125 L 266.605469 253.125 L 266.605469 264 L 226.070312 264 Z M 226.070312 253.125 " clip-rule="nonzero"/></clipPath><clipPath id="a895693f98"><path d="M 227.453125 262.941406 C 227.652344 258.167969 234.015625 256.972656 238.988281 255.980469 C 246.148438 254.585938 265.640625 253.195312 266.238281 254.585938 C 266.4375 254.984375 264.84375 256.378906 264.449219 256.378906 C 264.050781 256.378906 263.253906 254.390625 263.453125 253.992188 C 263.652344 253.59375 265.839844 253.59375 266.039062 253.992188 C 266.238281 254.390625 266.039062 255.582031 265.042969 256.378906 C 261.464844 259.164062 229.042969 264.929688 226.855469 262.542969 C 226.257812 261.945312 226.855469 259.757812 227.453125 259.558594 C 228.050781 259.359375 230.039062 261.152344 230.039062 261.75 C 230.039062 262.34375 227.453125 262.941406 227.453125 262.941406 " clip-rule="nonzero"/></clipPath><clipPath id="0e0b64809b"><path d="M 224 266 L 260.898438 266 L 260.898438 275.859375 L 224 275.859375 Z M 224 266 " clip-rule="nonzero"/></clipPath><clipPath id="b80ca58898"><path d="M 224.140625 269.605469 C 229.707031 265.625 232.09375 266.023438 235.476562 266.421875 C 241.441406 267.21875 260.535156 271.59375 260.734375 273.382812 C 260.734375 273.980469 258.546875 275.171875 258.148438 274.976562 C 257.753906 274.777344 258.347656 271.792969 258.746094 271.59375 C 259.144531 271.394531 260.734375 272.785156 260.734375 273.382812 C 260.734375 273.980469 260.339844 274.578125 259.542969 274.976562 C 257.953125 275.769531 253.972656 274.976562 250.394531 274.378906 C 245.621094 273.582031 237.863281 270.003906 233.289062 270.003906 C 230.105469 270.003906 226.527344 272.785156 225.132812 272.191406 C 224.339844 271.792969 224.140625 269.605469 224.140625 269.605469 " clip-rule="nonzero"/></clipPath><clipPath id="5d4d4d0ee6"><path d="M 108.304688 237.722656 L 152 237.722656 L 152 256.945312 L 108.304688 256.945312 Z M 108.304688 237.722656 " clip-rule="nonzero"/></clipPath><clipPath id="a7d59de0f7"><path d="M 148.648438 256.117188 C 127.964844 244.78125 122.394531 241.996094 118.019531 241.398438 C 114.835938 241 110.859375 242.792969 109.46875 241.996094 C 108.871094 241.597656 108.472656 240.605469 108.671875 240.207031 C 108.871094 239.808594 111.058594 239.210938 111.457031 239.609375 C 111.65625 240.007812 111.058594 241.996094 110.660156 241.996094 C 110.261719 241.996094 108.871094 240.207031 109.070312 239.609375 C 109.46875 238.613281 113.246094 237.820312 116.230469 238.019531 C 121.402344 238.414062 131.542969 242.992188 137.511719 245.578125 C 142.285156 247.765625 147.457031 249.753906 149.644531 252.140625 C 151.035156 253.53125 152.03125 255.917969 151.632812 256.515625 C 151.234375 256.914062 148.648438 256.117188 148.648438 256.117188 " clip-rule="nonzero"/></clipPath><clipPath id="88e2827f96"><path d="M 106 254.085938 L 154.417969 254.085938 L 154.417969 264.511719 L 106 264.511719 Z M 106 254.085938 " clip-rule="nonzero"/></clipPath><clipPath id="59c454a547"><path d="M 151.632812 264.472656 C 142.882812 259.5 129.554688 257.910156 122.195312 257.511719 C 116.429688 257.3125 109.070312 259.5 107.082031 258.304688 C 106.285156 257.910156 105.886719 256.714844 106.085938 256.515625 C 106.285156 256.117188 108.472656 256.316406 108.671875 256.714844 C 108.871094 257.113281 108.074219 258.304688 107.675781 258.304688 C 107.277344 258.304688 105.886719 257.113281 106.085938 256.714844 C 106.285156 256.316406 108.273438 255.917969 108.472656 256.117188 C 108.671875 256.316406 108.074219 258.304688 107.875 258.304688 C 107.675781 258.304688 106.683594 256.316406 107.082031 255.71875 C 108.074219 254.128906 116.628906 254.527344 122.394531 254.726562 C 129.554688 254.925781 141.289062 255.523438 146.859375 257.710938 C 150.242188 258.902344 154.21875 261.488281 154.21875 262.683594 C 154.21875 263.476562 151.632812 264.472656 151.632812 264.472656 " clip-rule="nonzero"/></clipPath><clipPath id="cc1e07c032"><path d="M 117 267.167969 L 151.695312 267.167969 L 151.695312 283 L 117 283 Z M 117 267.167969 " clip-rule="nonzero"/></clipPath><clipPath id="21f947d019"><path d="M 149.246094 272.195312 C 133.335938 273.390625 122.792969 282.9375 119.410156 282.9375 C 118.21875 282.9375 117.023438 282.140625 117.023438 281.742188 C 117.023438 281.34375 119.410156 280.550781 119.808594 280.75 C 120.207031 280.945312 119.808594 282.738281 119.410156 282.9375 C 119.015625 283.136719 117.023438 281.144531 117.222656 280.75 C 117.421875 280.351562 119.015625 279.953125 119.410156 280.152344 C 119.808594 280.351562 120.207031 281.941406 120.007812 282.339844 C 119.808594 282.738281 117.820312 282.539062 117.820312 282.738281 C 117.820312 282.738281 119.410156 283.136719 119.410156 282.9375 C 119.609375 282.738281 117.222656 281.742188 117.222656 280.945312 C 117.222656 279.953125 119.609375 278.558594 121.601562 277.167969 C 125.179688 274.78125 133.136719 270.605469 138.109375 269.210938 C 141.886719 268.019531 146.261719 267.222656 148.648438 268.019531 C 150.042969 268.417969 151.632812 270.007812 151.632812 270.804688 C 151.632812 271.398438 149.246094 272.195312 149.246094 272.195312 " clip-rule="nonzero"/></clipPath></defs><g clip-path="url(#b711e4d5e4)"><g clip-path="url(#cc9bd90832)"><g clip-path="url(#39cb64c37d)"><path fill="#5196a2" d="M 392.757812 293.472656 C 401.199219 298.03125 409.015625 303.488281 416.207031 309.835938 C 423.398438 316.183594 429.78125 323.265625 435.351562 331.074219 C 475.90625 387.769531 462.824219 466.605469 406.128906 507.164062 C 349.4375 547.722656 270.597656 534.632812 230.042969 477.9375 C 224.449219 470.144531 219.8125 461.816406 216.125 452.960938 C 212.441406 444.101562 209.804688 434.945312 208.214844 425.484375 C 210.800781 426.878906 213.429688 428.183594 216.105469 429.398438 C 218.78125 430.613281 221.496094 431.730469 224.25 432.753906 C 227.003906 433.777344 229.789062 434.707031 232.609375 435.535156 C 235.425781 436.363281 238.269531 437.09375 241.140625 437.726562 C 244.007812 438.355469 246.898438 438.886719 249.804688 439.316406 C 252.710938 439.746094 255.628906 440.074219 258.558594 440.300781 C 261.484375 440.523438 264.417969 440.648438 267.359375 440.667969 C 270.296875 440.691406 273.230469 440.609375 276.164062 440.425781 C 279.09375 440.242188 282.015625 439.953125 284.929688 439.566406 C 287.839844 439.179688 290.738281 438.691406 293.613281 438.101562 C 296.492188 437.507812 299.347656 436.820312 302.175781 436.03125 C 305.007812 435.242188 307.804688 434.355469 310.574219 433.371094 C 313.34375 432.382812 316.070312 431.304688 318.765625 430.128906 C 321.457031 428.953125 324.105469 427.6875 326.710938 426.324219 C 329.3125 424.964844 331.867188 423.515625 334.371094 421.976562 C 336.875 420.4375 339.320312 418.816406 341.707031 417.105469 C 344.097656 415.394531 346.425781 413.605469 348.691406 411.734375 C 350.953125 409.863281 353.152344 407.914062 355.28125 405.886719 C 357.410156 403.863281 359.464844 401.765625 361.445312 399.597656 C 363.429688 397.429688 365.332031 395.195312 367.15625 392.894531 C 368.984375 390.589844 370.726562 388.230469 372.390625 385.804688 C 374.050781 383.382812 375.625 380.902344 377.113281 378.371094 C 378.601562 375.835938 380 373.253906 381.308594 370.625 C 382.613281 367.992188 383.828125 365.320312 384.949219 362.605469 C 386.070312 359.890625 387.097656 357.136719 388.027344 354.351562 C 388.957031 351.5625 389.785156 348.746094 390.519531 345.902344 C 391.253906 343.058594 391.882812 340.191406 392.417969 337.300781 C 392.949219 334.410156 393.378906 331.507812 393.710938 328.585938 C 394.039062 325.667969 394.269531 322.742188 394.394531 319.804688 C 394.519531 316.871094 394.542969 313.933594 394.460938 310.996094 C 394.382812 308.058594 394.199219 305.128906 393.914062 302.207031 C 393.632812 299.28125 393.246094 296.371094 392.757812 293.472656 Z M 392.757812 293.472656 " fill-opacity="1" fill-rule="nonzero"/></g></g></g><g clip-path="url(#a8dd6e44f9)"><g clip-path="url(#1ea5092dde)"><g clip-path="url(#ced3543bdd)"><path fill="#477d86" d="M 392.613281 293.273438 C 392.527344 293.332031 392.496094 293.414062 392.511719 293.515625 C 393 296.40625 393.386719 299.3125 393.667969 302.230469 C 393.953125 305.148438 394.136719 308.074219 394.214844 311.003906 C 394.292969 313.9375 394.273438 316.867188 394.148438 319.796875 C 394.023438 322.726562 393.796875 325.648438 393.464844 328.5625 C 393.136719 331.476562 392.707031 334.375 392.175781 337.257812 C 391.644531 340.140625 391.015625 343.003906 390.28125 345.84375 C 389.550781 348.683594 388.722656 351.492188 387.796875 354.277344 C 386.867188 357.058594 385.84375 359.804688 384.726562 362.515625 C 383.605469 365.226562 382.394531 367.894531 381.089844 370.519531 C 379.785156 373.144531 378.390625 375.722656 376.902344 378.25 C 375.417969 380.777344 373.847656 383.25 372.1875 385.671875 C 370.53125 388.089844 368.792969 390.445312 366.96875 392.746094 C 365.144531 395.042969 363.246094 397.273438 361.265625 399.4375 C 359.289062 401.601562 357.238281 403.695312 355.113281 405.714844 C 352.988281 407.738281 350.796875 409.679688 348.535156 411.550781 C 346.277344 413.417969 343.953125 415.203125 341.570312 416.910156 C 339.183594 418.617188 336.742188 420.238281 334.246094 421.773438 C 331.746094 423.308594 329.199219 424.753906 326.597656 426.113281 C 324 427.472656 321.355469 428.734375 318.667969 429.910156 C 315.980469 431.082031 313.257812 432.160156 310.492188 433.144531 C 307.730469 434.125 304.9375 435.011719 302.113281 435.800781 C 299.289062 436.585938 296.4375 437.273438 293.566406 437.863281 C 290.695312 438.453125 287.804688 438.941406 284.898438 439.328125 C 281.992188 439.714844 279.074219 440 276.148438 440.183594 C 273.222656 440.367188 270.292969 440.449219 267.359375 440.425781 C 264.425781 440.40625 261.5 440.285156 258.574219 440.058594 C 255.652344 439.832031 252.742188 439.503906 249.839844 439.078125 C 246.9375 438.648438 244.054688 438.117188 241.191406 437.488281 C 238.328125 436.859375 235.488281 436.128906 232.675781 435.300781 C 229.863281 434.472656 227.082031 433.546875 224.335938 432.523438 C 221.585938 431.503906 218.878906 430.386719 216.207031 429.175781 C 213.535156 427.964844 210.910156 426.660156 208.332031 425.265625 C 208.242188 425.214844 208.15625 425.222656 208.070312 425.28125 C 207.988281 425.339844 207.953125 425.421875 207.972656 425.523438 C 209.550781 435.007812 212.1875 444.1875 215.878906 453.0625 C 219.574219 461.9375 224.226562 470.277344 229.839844 478.082031 C 270.410156 534.796875 349.558594 547.933594 406.269531 507.363281 C 448.820312 476.925781 466.84375 424.773438 456.058594 376.671875 C 455.066406 372.285156 453.847656 367.960938 452.394531 363.703125 C 450.941406 359.445312 449.269531 355.273438 447.371094 351.195312 C 445.476562 347.113281 443.367188 343.148438 441.046875 339.292969 C 438.726562 335.4375 436.207031 331.714844 433.492188 328.128906 C 430.777344 324.542969 427.875 321.109375 424.792969 317.832031 C 421.710938 314.554688 418.464844 311.453125 415.050781 308.519531 C 411.636719 305.589844 408.074219 302.847656 404.371094 300.296875 C 400.664062 297.746094 396.832031 295.398438 392.875 293.253906 C 392.785156 293.203125 392.695312 293.210938 392.613281 293.273438 Z M 435.148438 331.21875 C 475.558594 387.710938 462.476562 466.550781 405.984375 506.960938 C 349.488281 547.367188 270.65625 534.289062 230.242188 477.792969 C 225.335938 470.96875 221.160156 463.722656 217.714844 456.054688 C 214.269531 448.386719 211.628906 440.449219 209.789062 432.246094 C 209.324219 430.160156 208.90625 428.058594 208.542969 425.9375 C 211.128906 427.324219 213.761719 428.617188 216.433594 429.820312 C 219.109375 431.019531 221.824219 432.128906 224.578125 433.140625 C 227.332031 434.15625 230.117188 435.070312 232.933594 435.890625 C 235.75 436.710938 238.589844 437.429688 241.457031 438.050781 C 244.324219 438.671875 247.207031 439.195312 250.113281 439.617188 C 253.015625 440.035156 255.929688 440.355469 258.851562 440.574219 C 261.777344 440.792969 264.707031 440.910156 267.640625 440.921875 C 270.574219 440.9375 273.503906 440.851562 276.429688 440.660156 C 279.359375 440.472656 282.277344 440.179688 285.183594 439.789062 C 288.089844 439.394531 290.980469 438.902344 293.851562 438.308594 C 296.726562 437.714844 299.574219 437.023438 302.398438 436.234375 C 305.222656 435.441406 308.015625 434.550781 310.777344 433.566406 C 313.539062 432.582031 316.265625 431.5 318.953125 430.324219 C 321.640625 429.148438 324.285156 427.882812 326.882812 426.523438 C 329.484375 425.164062 332.03125 423.714844 334.53125 422.179688 C 337.027344 420.640625 339.472656 419.019531 341.855469 417.3125 C 344.242188 415.605469 346.566406 413.820312 348.828125 411.949219 C 351.089844 410.082031 353.28125 408.136719 355.410156 406.117188 C 357.535156 404.097656 359.585938 402.003906 361.566406 399.839844 C 363.550781 397.675781 365.453125 395.445312 367.277344 393.152344 C 369.101562 390.855469 370.847656 388.5 372.507812 386.082031 C 374.167969 383.664062 375.746094 381.191406 377.234375 378.664062 C 378.722656 376.136719 380.125 373.5625 381.433594 370.9375 C 382.742188 368.3125 383.960938 365.644531 385.085938 362.9375 C 386.210938 360.226562 387.238281 357.484375 388.175781 354.703125 C 389.109375 351.921875 389.945312 349.113281 390.683594 346.273438 C 391.421875 343.433594 392.058594 340.574219 392.597656 337.691406 C 393.136719 334.804688 393.578125 331.90625 393.914062 328.992188 C 394.25 326.082031 394.488281 323.160156 394.621094 320.226562 C 394.757812 317.296875 394.789062 314.367188 394.71875 311.433594 C 394.648438 308.5 394.480469 305.574219 394.207031 302.65625 C 393.933594 299.734375 393.558594 296.828125 393.082031 293.933594 C 401.421875 298.464844 409.140625 303.878906 416.242188 310.175781 C 423.34375 316.46875 429.648438 323.484375 435.148438 331.21875 Z M 435.148438 331.21875 " fill-opacity="1" fill-rule="nonzero"/></g></g></g><g clip-path="url(#a6f299470a)"><path fill="#609da8" d="M 175.085938 404.851562 C 163.28125 404.851562 153.710938 395.191406 153.710938 383.277344 L 153.710938 315.601562 C 153.710938 303.6875 163.28125 294.027344 175.085938 294.027344 C 186.890625 294.027344 196.460938 303.6875 196.460938 315.601562 L 196.460938 383.277344 C 196.460938 395.191406 186.890625 404.851562 175.085938 404.851562 Z M 175.085938 404.851562 " fill-opacity="1" fill-rule="nonzero"/></g><g clip-path="url(#115a0575ef)"><g clip-path="url(#92a206a52a)"><path fill="#e3cd30" d="M 49.730469 115.085938 L 324.742188 115.085938 L 324.742188 543.246094 L 49.730469 543.246094 Z M 49.730469 115.085938 " fill-opacity="1" fill-rule="nonzero"/></g></g><g clip-path="url(#e7dee73f9a)"><path fill="#ffed72" d="M 58.804688 230.351562 L 181.933594 306.097656 C 186.410156 308.851562 192.054688 308.851562 196.535156 306.097656 L 319.664062 230.351562 C 328.519531 224.90625 328.519531 212.023438 319.664062 206.574219 L 196.535156 130.828125 C 192.054688 128.074219 186.410156 128.074219 181.933594 130.828125 L 58.804688 206.574219 C 49.949219 212.023438 49.949219 224.90625 58.804688 230.351562 Z M 58.804688 230.351562 " fill-opacity="1" fill-rule="nonzero"/></g><g clip-path="url(#500fe936d3)"><g clip-path="url(#d826a53481)"><g clip-path="url(#bd67010a7c)"><path fill="#e3cd30" d="M 43.472656 56.21875 C 43.25 44.449219 55.855469 36.84375 66.164062 42.527344 L 118.339844 71.304688 L 170.511719 100.082031 C 180.820312 105.765625 181.097656 120.476562 171.015625 126.5625 L 68.921875 188.15625 C 58.835938 194.242188 45.953125 187.136719 45.726562 175.367188 L 44.601562 115.792969 Z M 43.472656 56.21875 " fill-opacity="1" fill-rule="nonzero"/></g></g></g><g clip-path="url(#93eb5721bb)"><g clip-path="url(#a2b4a5e98f)"><g clip-path="url(#854dd463f6)"><path fill="#e3cd30" d="M 305.144531 42.144531 C 315.292969 36.175781 328.101562 43.433594 328.203125 55.203125 L 329.234375 174.367188 C 329.335938 186.140625 316.652344 193.597656 306.402344 187.792969 L 202.648438 129.035156 C 192.402344 123.234375 192.273438 108.519531 202.421875 102.550781 L 253.78125 72.347656 Z M 305.144531 42.144531 " fill-opacity="1" fill-rule="nonzero"/></g></g></g><g clip-path="url(#2cb78c8757)"><g clip-path="url(#a09ec59a5c)"><g clip-path="url(#ecbe00e7c6)"><path fill="#b5a227" d="M 57.671875 79.957031 C 57.292969 68.417969 69.5625 60.78125 79.75 66.207031 L 129.21875 92.566406 C 139.410156 97.992188 139.878906 112.417969 130.066406 118.527344 L 82.421875 148.195312 C 72.609375 154.304688 59.871094 147.519531 59.496094 135.980469 L 58.582031 107.96875 Z M 57.671875 79.957031 " fill-opacity="1" fill-rule="nonzero"/></g></g></g><g clip-path="url(#16ab89cf0a)"><g clip-path="url(#d31d698493)"><g clip-path="url(#2b7e32d170)"><path fill="#b5a227" d="M 294.46875 66.375 C 304.613281 60.867188 316.941406 68.40625 316.65625 79.949219 L 315.964844 107.964844 L 315.273438 135.984375 C 314.988281 147.527344 302.304688 154.410156 292.445312 148.378906 L 244.566406 119.089844 C 234.707031 113.054688 235.0625 98.628906 245.207031 93.121094 L 269.839844 79.746094 Z M 294.46875 66.375 " fill-opacity="1" fill-rule="nonzero"/></g></g></g><g clip-path="url(#0cca0d10a3)"><path fill="#ffffff" d="M 135.15625 154.195312 L 139.207031 154.195312 C 140.039062 154.195312 140.867188 154.234375 141.691406 154.316406 C 142.519531 154.398438 143.339844 154.523438 144.152344 154.6875 C 144.964844 154.847656 145.769531 155.050781 146.566406 155.296875 C 147.359375 155.539062 148.140625 155.820312 148.90625 156.140625 C 149.675781 156.460938 150.421875 156.816406 151.15625 157.210938 C 151.886719 157.605469 152.597656 158.035156 153.289062 158.5 C 153.980469 158.964844 154.644531 159.464844 155.285156 159.996094 C 155.929688 160.527344 156.542969 161.085938 157.128906 161.679688 C 157.71875 162.269531 158.273438 162.890625 158.800781 163.535156 C 159.328125 164.183594 159.820312 164.855469 160.28125 165.550781 C 160.742188 166.246094 161.167969 166.964844 161.5625 167.703125 C 161.953125 168.441406 162.304688 169.195312 162.625 169.96875 C 162.941406 170.742188 163.222656 171.527344 163.460938 172.328125 C 163.703125 173.128906 163.90625 173.941406 164.066406 174.761719 C 164.226562 175.582031 164.351562 176.410156 164.429688 177.242188 C 164.511719 178.074219 164.554688 178.910156 164.554688 179.746094 L 164.554688 214.828125 C 164.554688 215.667969 164.511719 216.5 164.429688 217.335938 C 164.351562 218.167969 164.226562 218.992188 164.066406 219.816406 C 163.90625 220.636719 163.703125 221.445312 163.460938 222.246094 C 163.222656 223.046875 162.941406 223.835938 162.625 224.609375 C 162.304688 225.382812 161.953125 226.136719 161.5625 226.875 C 161.167969 227.613281 160.742188 228.328125 160.28125 229.027344 C 159.820312 229.722656 159.328125 230.390625 158.800781 231.039062 C 158.273438 231.6875 157.71875 232.304688 157.128906 232.898438 C 156.542969 233.488281 155.929688 234.050781 155.285156 234.582031 C 154.644531 235.113281 153.980469 235.609375 153.289062 236.074219 C 152.597656 236.539062 151.886719 236.96875 151.15625 237.363281 C 150.421875 237.757812 149.675781 238.117188 148.90625 238.4375 C 148.140625 238.757812 147.359375 239.039062 146.566406 239.28125 C 145.769531 239.523438 144.964844 239.726562 144.152344 239.890625 C 143.339844 240.054688 142.519531 240.175781 141.691406 240.257812 C 140.867188 240.339844 140.039062 240.382812 139.207031 240.382812 L 135.15625 240.382812 C 134.324219 240.382812 133.496094 240.339844 132.671875 240.257812 C 131.84375 240.175781 131.023438 240.054688 130.210938 239.890625 C 129.394531 239.726562 128.589844 239.523438 127.796875 239.28125 C 127.003906 239.039062 126.222656 238.757812 125.457031 238.4375 C 124.6875 238.117188 123.9375 237.757812 123.207031 237.363281 C 122.476562 236.96875 121.761719 236.539062 121.074219 236.074219 C 120.382812 235.609375 119.71875 235.113281 119.074219 234.582031 C 118.433594 234.050781 117.820312 233.488281 117.234375 232.898438 C 116.644531 232.304688 116.089844 231.6875 115.5625 231.039062 C 115.035156 230.390625 114.542969 229.722656 114.082031 229.027344 C 113.621094 228.328125 113.191406 227.613281 112.800781 226.875 C 112.410156 226.136719 112.054688 225.382812 111.738281 224.609375 C 111.421875 223.835938 111.140625 223.046875 110.902344 222.246094 C 110.660156 221.445312 110.457031 220.636719 110.296875 219.816406 C 110.132812 218.992188 110.011719 218.167969 109.929688 217.335938 C 109.851562 216.5 109.808594 215.667969 109.808594 214.828125 L 109.808594 179.746094 C 109.808594 178.910156 109.851562 178.074219 109.929688 177.242188 C 110.011719 176.410156 110.132812 175.582031 110.296875 174.761719 C 110.457031 173.941406 110.660156 173.128906 110.902344 172.328125 C 111.140625 171.527344 111.421875 170.742188 111.738281 169.96875 C 112.054688 169.195312 112.410156 168.441406 112.800781 167.703125 C 113.191406 166.964844 113.621094 166.246094 114.082031 165.550781 C 114.542969 164.855469 115.035156 164.183594 115.5625 163.535156 C 116.089844 162.890625 116.644531 162.269531 117.234375 161.679688 C 117.820312 161.085938 118.433594 160.527344 119.074219 159.996094 C 119.71875 159.464844 120.382812 158.964844 121.074219 158.5 C 121.761719 158.035156 122.476562 157.605469 123.207031 157.210938 C 123.9375 156.816406 124.6875 156.460938 125.457031 156.140625 C 126.222656 155.820312 127.003906 155.539062 127.796875 155.296875 C 128.589844 155.050781 129.394531 154.847656 130.210938 154.6875 C 131.023438 154.523438 131.84375 154.398438 132.671875 154.316406 C 133.496094 154.234375 134.324219 154.195312 135.15625 154.195312 Z M 135.15625 154.195312 " fill-opacity="1" fill-rule="nonzero"/></g><g clip-path="url(#e62043c0de)"><path fill="#ffffff" d="M 233.410156 154.195312 L 237.464844 154.195312 C 238.292969 154.195312 239.121094 154.234375 239.945312 154.316406 C 240.773438 154.398438 241.59375 154.523438 242.40625 154.6875 C 243.222656 154.847656 244.027344 155.050781 244.820312 155.296875 C 245.613281 155.539062 246.394531 155.820312 247.164062 156.140625 C 247.929688 156.460938 248.679688 156.816406 249.410156 157.210938 C 250.144531 157.605469 250.855469 158.035156 251.542969 158.5 C 252.234375 158.964844 252.898438 159.464844 253.542969 159.996094 C 254.183594 160.527344 254.796875 161.085938 255.386719 161.679688 C 255.972656 162.269531 256.527344 162.890625 257.054688 163.535156 C 257.582031 164.183594 258.074219 164.855469 258.535156 165.550781 C 259 166.246094 259.425781 166.964844 259.816406 167.703125 C 260.207031 168.441406 260.5625 169.195312 260.878906 169.96875 C 261.195312 170.742188 261.476562 171.527344 261.71875 172.328125 C 261.957031 173.128906 262.160156 173.941406 262.320312 174.761719 C 262.484375 175.582031 262.605469 176.410156 262.6875 177.242188 C 262.769531 178.074219 262.808594 178.910156 262.808594 179.746094 L 262.808594 214.828125 C 262.808594 215.667969 262.769531 216.5 262.6875 217.335938 C 262.605469 218.167969 262.484375 218.992188 262.320312 219.816406 C 262.160156 220.636719 261.957031 221.445312 261.71875 222.246094 C 261.476562 223.046875 261.195312 223.835938 260.878906 224.609375 C 260.5625 225.382812 260.207031 226.136719 259.816406 226.875 C 259.425781 227.613281 259 228.328125 258.535156 229.027344 C 258.074219 229.722656 257.582031 230.390625 257.054688 231.039062 C 256.527344 231.6875 255.972656 232.304688 255.386719 232.898438 C 254.796875 233.488281 254.183594 234.050781 253.542969 234.582031 C 252.898438 235.113281 252.234375 235.609375 251.542969 236.074219 C 250.855469 236.539062 250.144531 236.96875 249.410156 237.363281 C 248.679688 237.757812 247.929688 238.117188 247.164062 238.4375 C 246.394531 238.757812 245.613281 239.039062 244.820312 239.28125 C 244.027344 239.523438 243.222656 239.726562 242.40625 239.890625 C 241.59375 240.054688 240.773438 240.175781 239.945312 240.257812 C 239.121094 240.339844 238.292969 240.382812 237.464844 240.382812 L 233.410156 240.382812 C 232.578125 240.382812 231.75 240.339844 230.925781 240.257812 C 230.097656 240.175781 229.277344 240.054688 228.464844 239.890625 C 227.652344 239.726562 226.847656 239.523438 226.050781 239.28125 C 225.257812 239.039062 224.476562 238.757812 223.710938 238.4375 C 222.945312 238.117188 222.195312 237.757812 221.460938 237.363281 C 220.730469 236.96875 220.019531 236.539062 219.328125 236.074219 C 218.636719 235.609375 217.972656 235.113281 217.332031 234.582031 C 216.6875 234.050781 216.074219 233.488281 215.488281 232.898438 C 214.902344 232.304688 214.34375 231.6875 213.816406 231.039062 C 213.289062 230.390625 212.796875 229.722656 212.335938 229.027344 C 211.875 228.328125 211.449219 227.613281 211.058594 226.875 C 210.664062 226.136719 210.3125 225.382812 209.992188 224.609375 C 209.675781 223.835938 209.394531 223.046875 209.15625 222.246094 C 208.914062 221.445312 208.714844 220.636719 208.550781 219.816406 C 208.390625 218.992188 208.265625 218.167969 208.1875 217.335938 C 208.105469 216.5 208.0625 215.667969 208.0625 214.828125 L 208.0625 179.746094 C 208.0625 178.910156 208.105469 178.074219 208.1875 177.242188 C 208.265625 176.410156 208.390625 175.582031 208.550781 174.761719 C 208.714844 173.941406 208.914062 173.128906 209.15625 172.328125 C 209.394531 171.527344 209.675781 170.742188 209.992188 169.96875 C 210.3125 169.195312 210.664062 168.441406 211.058594 167.703125 C 211.449219 166.964844 211.875 166.246094 212.335938 165.550781 C 212.796875 164.855469 213.289062 164.183594 213.816406 163.535156 C 214.34375 162.890625 214.902344 162.269531 215.488281 161.679688 C 216.074219 161.085938 216.6875 160.527344 217.332031 159.996094 C 217.972656 159.464844 218.636719 158.964844 219.328125 158.5 C 220.019531 158.035156 220.730469 157.605469 221.460938 157.210938 C 222.195312 156.816406 222.945312 156.460938 223.710938 156.140625 C 224.476562 155.820312 225.257812 155.539062 226.050781 155.296875 C 226.847656 155.050781 227.652344 154.847656 228.464844 154.6875 C 229.277344 154.523438 230.097656 154.398438 230.925781 154.316406 C 231.75 154.234375 232.578125 154.195312 233.410156 154.195312 Z M 233.410156 154.195312 " fill-opacity="1" fill-rule="nonzero"/></g><g clip-path="url(#545fe3479a)"><path fill="#000000" d="M 234.277344 173.441406 L 236.496094 173.441406 C 237.410156 173.441406 238.3125 173.53125 239.207031 173.710938 C 240.101562 173.890625 240.96875 174.15625 241.8125 174.507812 C 242.652344 174.859375 243.453125 175.289062 244.210938 175.800781 C 244.96875 176.3125 245.671875 176.890625 246.316406 177.542969 C 246.960938 178.191406 247.539062 178.898438 248.042969 179.664062 C 248.550781 180.425781 248.976562 181.234375 249.328125 182.082031 C 249.675781 182.929688 249.941406 183.804688 250.117188 184.707031 C 250.296875 185.609375 250.382812 186.519531 250.382812 187.4375 L 250.382812 206.652344 C 250.382812 207.574219 250.296875 208.484375 250.117188 209.382812 C 249.941406 210.285156 249.675781 211.160156 249.328125 212.007812 C 248.976562 212.859375 248.550781 213.664062 248.042969 214.429688 C 247.539062 215.191406 246.960938 215.898438 246.316406 216.550781 C 245.671875 217.199219 244.96875 217.78125 244.210938 218.289062 C 243.453125 218.800781 242.652344 219.230469 241.8125 219.582031 C 240.96875 219.933594 240.101562 220.199219 239.207031 220.378906 C 238.3125 220.558594 237.410156 220.648438 236.496094 220.648438 L 234.277344 220.648438 C 233.363281 220.648438 232.460938 220.558594 231.566406 220.378906 C 230.671875 220.199219 229.804688 219.933594 228.960938 219.582031 C 228.117188 219.230469 227.316406 218.800781 226.558594 218.289062 C 225.800781 217.78125 225.101562 217.199219 224.457031 216.550781 C 223.808594 215.898438 223.234375 215.191406 222.726562 214.429688 C 222.222656 213.664062 221.792969 212.859375 221.445312 212.007812 C 221.097656 211.160156 220.832031 210.285156 220.65625 209.382812 C 220.476562 208.484375 220.386719 207.574219 220.386719 206.652344 L 220.386719 187.4375 C 220.386719 186.519531 220.476562 185.609375 220.65625 184.707031 C 220.832031 183.804688 221.097656 182.929688 221.445312 182.082031 C 221.792969 181.234375 222.222656 180.425781 222.726562 179.664062 C 223.234375 178.898438 223.808594 178.191406 224.457031 177.542969 C 225.101562 176.890625 225.800781 176.3125 226.558594 175.800781 C 227.316406 175.289062 228.117188 174.859375 228.960938 174.507812 C 229.804688 174.15625 230.671875 173.890625 231.566406 173.710938 C 232.460938 173.53125 233.363281 173.441406 234.277344 173.441406 Z M 234.277344 173.441406 " fill-opacity="1" fill-rule="nonzero"/></g><g clip-path="url(#6488dee4ee)"><path fill="#000000" d="M 137.234375 173.441406 L 139.457031 173.441406 C 140.367188 173.441406 141.273438 173.53125 142.167969 173.710938 C 143.058594 173.890625 143.929688 174.15625 144.769531 174.507812 C 145.613281 174.859375 146.414062 175.289062 147.171875 175.800781 C 147.929688 176.3125 148.632812 176.890625 149.277344 177.542969 C 149.921875 178.191406 150.496094 178.898438 151.003906 179.664062 C 151.511719 180.425781 151.9375 181.234375 152.289062 182.082031 C 152.636719 182.929688 152.898438 183.804688 153.078125 184.707031 C 153.253906 185.609375 153.34375 186.519531 153.34375 187.4375 L 153.34375 206.652344 C 153.34375 207.574219 153.253906 208.484375 153.078125 209.382812 C 152.898438 210.285156 152.636719 211.160156 152.289062 212.007812 C 151.9375 212.859375 151.511719 213.664062 151.003906 214.429688 C 150.496094 215.191406 149.921875 215.898438 149.277344 216.550781 C 148.632812 217.199219 147.929688 217.78125 147.171875 218.289062 C 146.414062 218.800781 145.613281 219.230469 144.769531 219.582031 C 143.929688 219.933594 143.058594 220.199219 142.167969 220.378906 C 141.273438 220.558594 140.367188 220.648438 139.457031 220.648438 L 137.234375 220.648438 C 136.324219 220.648438 135.421875 220.558594 134.527344 220.378906 C 133.632812 220.199219 132.761719 219.933594 131.921875 219.582031 C 131.078125 219.230469 130.277344 218.800781 129.519531 218.289062 C 128.761719 217.78125 128.058594 217.199219 127.414062 216.550781 C 126.769531 215.898438 126.195312 215.191406 125.6875 214.429688 C 125.183594 213.664062 124.753906 212.859375 124.40625 212.007812 C 124.054688 211.160156 123.792969 210.285156 123.613281 209.382812 C 123.4375 208.484375 123.347656 207.574219 123.347656 206.652344 L 123.347656 187.4375 C 123.347656 186.519531 123.4375 185.609375 123.613281 184.707031 C 123.792969 183.804688 124.054688 182.929688 124.40625 182.082031 C 124.753906 181.234375 125.183594 180.425781 125.6875 179.664062 C 126.195312 178.898438 126.769531 178.191406 127.414062 177.542969 C 128.058594 176.890625 128.761719 176.3125 129.519531 175.800781 C 130.277344 175.289062 131.078125 174.859375 131.921875 174.507812 C 132.761719 174.15625 133.632812 173.890625 134.527344 173.710938 C 135.421875 173.53125 136.324219 173.441406 137.234375 173.441406 Z M 137.234375 173.441406 " fill-opacity="1" fill-rule="nonzero"/></g><g clip-path="url(#ef66def938)"><path fill="#000000" d="M 211.890625 293.285156 L 211.890625 295.453125 C 211.890625 296.339844 211.804688 297.222656 211.632812 298.09375 C 211.457031 298.964844 211.199219 299.8125 210.859375 300.632812 C 210.519531 301.453125 210.101562 302.234375 209.605469 302.972656 C 209.113281 303.714844 208.550781 304.398438 207.921875 305.027344 C 207.292969 305.65625 206.609375 306.214844 205.867188 306.710938 C 205.128906 307.203125 204.347656 307.621094 203.523438 307.960938 C 202.703125 308.300781 201.855469 308.558594 200.980469 308.730469 C 200.109375 308.90625 199.226562 308.992188 198.339844 308.992188 L 179.730469 308.992188 C 178.839844 308.992188 177.957031 308.90625 177.085938 308.730469 C 176.210938 308.558594 175.363281 308.300781 174.542969 307.960938 C 173.71875 307.621094 172.9375 307.203125 172.199219 306.710938 C 171.457031 306.214844 170.773438 305.65625 170.144531 305.027344 C 169.515625 304.398438 168.953125 303.714844 168.460938 302.972656 C 167.964844 302.234375 167.546875 301.453125 167.207031 300.632812 C 166.867188 299.8125 166.609375 298.964844 166.433594 298.09375 C 166.261719 297.222656 166.175781 296.339844 166.175781 295.453125 L 166.175781 293.285156 C 166.175781 292.398438 166.261719 291.515625 166.433594 290.644531 C 166.609375 289.773438 166.867188 288.925781 167.207031 288.105469 C 167.546875 287.28125 167.964844 286.503906 168.460938 285.761719 C 168.953125 285.023438 169.515625 284.339844 170.144531 283.710938 C 170.773438 283.082031 171.457031 282.519531 172.199219 282.027344 C 172.9375 281.535156 173.71875 281.117188 174.542969 280.777344 C 175.363281 280.4375 176.210938 280.179688 177.085938 280.003906 C 177.957031 279.832031 178.839844 279.746094 179.730469 279.746094 L 198.339844 279.746094 C 199.226562 279.746094 200.109375 279.832031 200.980469 280.003906 C 201.855469 280.179688 202.703125 280.4375 203.523438 280.777344 C 204.347656 281.117188 205.128906 281.535156 205.867188 282.027344 C 206.609375 282.519531 207.292969 283.082031 207.921875 283.710938 C 208.550781 284.339844 209.113281 285.023438 209.605469 285.761719 C 210.101562 286.503906 210.519531 287.28125 210.859375 288.105469 C 211.199219 288.925781 211.457031 289.773438 211.632812 290.644531 C 211.804688 291.515625 211.890625 292.398438 211.890625 293.285156 Z M 211.890625 293.285156 " fill-opacity="1" fill-rule="nonzero"/></g><g clip-path="url(#651c7491d2)"><g clip-path="url(#89dc88c5f8)"><path fill="#b5a227" d="M 216.679688 231.058594 L 268.195312 231.058594 L 268.195312 264.472656 L 216.679688 264.472656 Z M 216.679688 231.058594 " fill-opacity="1" fill-rule="nonzero"/></g></g><g clip-path="url(#fdc180eef9)"><g clip-path="url(#a895693f98)"><path fill="#b5a227" d="M 218.703125 246.035156 L 274.195312 246.035156 L 274.195312 270.898438 L 218.703125 270.898438 Z M 218.703125 246.035156 " fill-opacity="1" fill-rule="nonzero"/></g></g><g clip-path="url(#0e0b64809b)"><g clip-path="url(#b80ca58898)"><path fill="#b5a227" d="M 216.183594 258.464844 L 268.691406 258.464844 L 268.691406 282.929688 L 216.183594 282.929688 Z M 216.183594 258.464844 " fill-opacity="1" fill-rule="nonzero"/></g></g><g clip-path="url(#5d4d4d0ee6)"><g clip-path="url(#a7d59de0f7)"><path fill="#b5a227" d="M 100.714844 230.0625 L 159.589844 230.0625 L 159.589844 264.472656 L 100.714844 264.472656 Z M 100.714844 230.0625 " fill-opacity="1" fill-rule="nonzero"/></g></g><g clip-path="url(#88e2827f96)"><g clip-path="url(#59c454a547)"><path fill="#b5a227" d="M 98.128906 246.769531 L 162.175781 246.769531 L 162.175781 272.429688 L 98.128906 272.429688 Z M 98.128906 246.769531 " fill-opacity="1" fill-rule="nonzero"/></g></g><g clip-path="url(#cc1e07c032)"><g clip-path="url(#21f947d019)"><path fill="#b5a227" d="M 109.070312 260.0625 L 159.589844 260.0625 L 159.589844 290.890625 L 109.070312 290.890625 Z M 109.070312 260.0625 " fill-opacity="1" fill-rule="nonzero"/></g></g></svg>